<?xml version="1.0" standalone="no"?><!DOCTYPE svg PUBLIC "-//W3C//DTD SVG 1.1//EN" "http://www.w3.org/Graphics/SVG/1.1/DTD/svg11.dtd"><svg t="1680329746290" class="icon" viewBox="0 0 1024 1024" version="1.1" xmlns="http://www.w3.org/2000/svg" p-id="2813" xmlns:xlink="http://www.w3.org/1999/xlink" width="200" height="200"><path d="M480 352c-105.888 0-192 86.112-192 192s86.112 192 192 192 192-86.112 192-192S585.888 352 480 352zM480 672c-70.592 0-128-57.408-128-128 0-70.592 57.408-128 128-128 70.592 0 128 57.408 128 128C608 614.592 550.592 672 480 672z" fill="#8a8a8a" p-id="2814"></path><path d="M576 832 160 832c-17.632 0-32-14.336-32-32L128 288c0-17.632 14.368-32 32-32l96 0c17.664 0 32-14.336 32-32S273.664 192 256 192L160 192C107.072 192 64 235.072 64 288l0 512c0 52.928 43.072 96 96 96l416 0c17.696 0 32-14.304 32-32S593.696 832 576 832z" fill="#8a8a8a" p-id="2815"></path><path d="M512 256l320 0c17.664 0 32 14.368 32 32l0 256c0 17.696 14.304 32 32 32s32-14.304 32-32L928 288c0-52.928-43.072-96-96-96L512 192c-17.664 0-32 14.336-32 32S494.336 256 512 256z" fill="#8a8a8a" p-id="2816"></path><path d="M784 336m-48 0a1.5 1.5 0 1 0 96 0 1.5 1.5 0 1 0-96 0Z" fill="#8a8a8a" p-id="2817"></path><path d="M320 160l128 0c17.696 0 32-14.304 32-32s-14.304-32-32-32l-128 0C302.304 96 288 110.304 288 128S302.304 160 320 160z" fill="#8a8a8a" p-id="2818"></path><path d="M960 768l-96 0 0-96c0-17.696-14.304-32-32-32s-32 14.304-32 32l0 96-96 0c-17.696 0-32 14.304-32 32s14.304 32 32 32l96 0 0 96c0 17.696 14.304 32 32 32s32-14.304 32-32l0-96 96 0c17.696 0 32-14.304 32-32S977.696 768 960 768z" fill="#8a8a8a" p-id="2819"></path></svg>